<svg width="17" height="17" viewBox="0 0 17 17" fill="none" xmlns="http://www.w3.org/2000/svg">
<path d="M0.000646052 16.7928C0.000646052 15.6022 -0.00193815 14.409 0.00323026 13.2184C0.00581446 12.3632 0.184125 11.5417 0.530408 10.7592C0.822424 10.0964 1.21781 9.50627 1.71656 8.98376C2.18688 8.49245 2.72181 8.08693 3.32135 7.76978C3.45056 7.7022 3.58494 7.63981 3.71673 7.57482C3.72707 7.56962 3.73741 7.56442 3.74774 7.55922C3.65988 7.48643 3.5746 7.41885 3.49191 7.34606C2.98799 6.90154 2.61586 6.36084 2.37295 5.73175C2.16363 5.19105 2.06801 4.63215 2.08868 4.05245C2.11194 3.38957 2.2825 2.76568 2.60294 2.18339C2.92855 1.59069 3.37045 1.10198 3.92864 0.72245C4.44548 0.368914 5.01401 0.142755 5.63422 0.0491715C6.00376 -0.00801822 6.37588 -0.0158168 6.74542 0.0283752C7.2571 0.0881645 7.74293 0.241537 8.19775 0.483293C8.63965 0.717251 9.02728 1.0214 9.36064 1.39573C9.8413 1.93643 10.1643 2.55772 10.3271 3.26479C10.4227 3.67552 10.4538 4.09144 10.4227 4.50997C10.3866 5.01168 10.2651 5.49259 10.061 5.95271C9.83097 6.47262 9.51311 6.93273 9.10222 7.32526C9.01953 7.40585 8.92908 7.47864 8.83863 7.55922C9.68625 7.91536 10.3762 8.48465 10.9913 9.16573C10.6424 9.46988 10.2987 9.77142 9.93692 10.086C9.92658 10.0704 9.92141 10.0522 9.90849 10.0418C9.53895 9.64925 9.12289 9.31651 8.65515 9.05135C8.07371 8.72121 7.45091 8.50805 6.78419 8.43266C6.25184 8.37288 5.72466 8.40147 5.20007 8.51585C4.62379 8.64063 4.08628 8.86419 3.59269 9.18913C2.98799 9.58426 2.49441 10.0912 2.11453 10.7073C1.78892 11.235 1.57701 11.8043 1.46589 12.4151C1.41421 12.7037 1.38836 12.9974 1.38836 13.2912C1.38836 13.9775 1.38836 14.6663 1.38836 15.3526C1.38836 15.3656 1.38836 15.376 1.38836 15.3942C2.77867 15.3942 4.16639 15.3942 5.55927 15.3942C5.55927 15.415 5.55927 15.4306 5.55927 15.4462C5.55927 15.8803 5.55927 16.3118 5.55927 16.746C5.55927 16.7616 5.55927 16.7798 5.55927 16.7954C3.71157 16.7928 1.85611 16.7928 0.000646052 16.7928ZM9.0402 4.20322C9.03245 2.6565 7.78427 1.40093 6.25442 1.40613C4.71682 1.41133 3.47382 2.6721 3.47899 4.21882C3.48416 5.74475 4.74266 7.02632 6.30869 7.00032C7.80753 6.97433 9.03761 5.73435 9.0402 4.20322Z" fill="white"/>
<path d="M8.53371 16.7928C8.47169 16.785 8.40967 16.7772 8.35023 16.7694C7.75845 16.6758 7.26486 16.3976 6.86948 15.9479C6.55679 15.5918 6.35781 15.1785 6.28803 14.7105C6.195 14.0867 6.32938 13.5096 6.68083 12.9897C6.97026 12.5607 7.35531 12.254 7.83339 12.0616C8.13832 11.9394 8.4536 11.8901 8.78179 11.8979C9.02212 11.9056 9.26245 11.9316 9.49245 12.007C9.61132 12.046 9.72244 12.1032 9.83615 12.1552C9.86716 12.1682 9.88266 12.1708 9.9085 12.1448C10.2677 11.7835 10.6269 11.4221 10.9861 11.0608C11.6709 10.3719 12.3557 9.68305 13.0406 8.99417C13.3197 8.71342 13.5988 8.43267 13.8778 8.14932C13.8882 8.13893 13.8933 8.12853 13.9114 8.10513C14.772 8.97598 15.6274 9.83902 16.4801 10.7021C16.1545 11.027 15.8315 11.3519 15.5059 11.6769C14.9787 11.1466 14.449 10.6111 13.9192 10.0782C13.6608 10.3381 13.4101 10.5929 13.1517 10.8528C13.6789 11.3831 14.2112 11.916 14.741 12.449C14.4154 12.7765 14.0923 13.1014 13.7667 13.429C13.2395 12.8961 12.7098 12.3606 12.1697 11.8173C12.1102 11.8797 12.0586 11.9394 12.0043 11.994C11.6296 12.371 11.2549 12.7505 10.8776 13.1274C10.8569 13.1482 10.8543 13.1638 10.8647 13.1924C10.9758 13.4784 11.0714 13.7695 11.1102 14.0763C11.1515 14.4012 11.1205 14.7235 11.0249 15.0355C10.8983 15.4488 10.676 15.8075 10.3659 16.1065C10.1101 16.3534 9.81547 16.5354 9.48211 16.655C9.28313 16.7252 9.07897 16.772 8.86707 16.785C8.85932 16.785 8.85156 16.7902 8.84381 16.7928C8.74044 16.7928 8.63708 16.7928 8.53371 16.7928ZM9.73536 14.3492C9.73536 13.7799 9.2547 13.3016 8.68101 13.299C8.14091 13.2964 7.65508 13.7903 7.65249 14.344C7.65249 14.9003 8.13315 15.3942 8.67842 15.3942C9.24695 15.3942 9.73278 14.9133 9.73536 14.3492Z" fill="white"/>
</svg>
